<?xml version="1.0" encoding="utf-8"?>
<!-- Generator: Adobe Illustrator 22.1.0, SVG Export Plug-In . SVG Version: 6.00 Build 0)  -->
<svg version="1.1" id="Layer_1" xmlns="http://www.w3.org/2000/svg" xmlns:xlink="http://www.w3.org/1999/xlink" x="0px" y="0px"
	 viewBox="0 0 50 50" enable-background="new 0 0 50 50" xml:space="preserve">
<path d="M31.2,26.8c4.3-2.3,7.3-6.8,7.3-12.1C38.5,7.2,32.4,1,24.8,1c-7.5,0-13.7,6.1-13.7,13.7c0,5.2,3,9.8,7.3,12.1
	C9.6,29.5,3,37.9,3,47.7C3,48.4,3.6,49,4.3,49s1.3-0.6,1.3-1.3C5.6,37,14.3,28.3,25,28.3S44.4,37,44.4,47.7c0,0.7,0.6,1.3,1.3,1.3
	s1.3-0.6,1.3-1.3C46.8,37.9,40.2,29.5,31.2,26.8z M13.8,14.7c0-6.1,5-11.1,11.1-11.1C31,3.6,36,8.6,36,14.7s-5,11.1-11.1,11.1
	S13.8,20.8,13.8,14.7z"/>
</svg>
