<?xml version="1.0" encoding="utf-8"?>
<svg version="1.1" id="Layer_1" xmlns="http://www.w3.org/2000/svg" xmlns:xlink="http://www.w3.org/1999/xlink" x="0px" y="0px"
     viewBox="0 0 50 50" style="enable-background:new 0 0 50 50;" xml:space="preserve">
  <path
   d="m 24.644444,25.021429 c 0,-0.688968 -0.563652,-1.263145 -1.231788,-1.263145 -0.668245,0 -1.232005,0.574177 -1.232005,1.263145 0,0.67866 0.56376,1.263252 1.232005,1.263252 0.668136,0 1.231788,-0.584592 1.231788,-1.263252 z m 0.532513,-1.764301 c 0.4698,0.480216 0.73074,1.10658 0.73074,1.764301 0,0.657829 -0.26094,1.284193 -0.73074,1.764409 -0.469801,0.469692 -1.096165,0.720324 -1.764301,0.720324 -0.438553,0 -0.835333,-0.156564 -1.179817,-0.4698 l -0.05219,-0.04166 v 2.795909 l -1.263145,0.398625 v -7.558577 h 1.263145 v 0.375949 l 0.05219,-0.0523 c 0.375948,-0.365316 0.803868,-0.417504 1.179817,-0.417504 0.65772,0 1.284084,0.250633 1.764301,0.720325 z"
   fill="#000000"
   style="fill-rule:evenodd;stroke:none;stroke-width:0.359169" /><path
   d="m 27.620027,25.021429 c 0,0.689076 0.56376,1.263252 1.232005,1.263252 0.668136,0 1.231788,-0.574176 1.231788,-1.263252 0,-0.678552 -0.563652,-1.263145 -1.231788,-1.263145 -0.668245,0 -1.232005,0.584593 -1.232005,1.263145 z m -0.532513,1.764409 c -0.4698,-0.480216 -0.73074,-1.10658 -0.73074,-1.764409 0,-0.657721 0.26094,-1.284085 0.73074,-1.764301 0.469801,-0.469692 1.096273,-0.720325 1.764518,-0.720325 0.438336,0 0.835116,0.156564 1.1796,0.469801 l 0.05219,0.04166 v -0.417612 h 1.263253 v 4.781656 H 30.08382 v -0.375949 l -0.05219,0.0523 c -0.375732,0.365315 -0.803868,0.417503 -1.1796,0.417503 -0.657829,0 -1.284085,-0.250632 -1.764518,-0.720324 z"
   fill="#000000"
   style="fill-rule:evenodd;stroke:none;stroke-width:0.359169" /><polyline
   fill="#000000"
   points="90.7944688 29 93.9630208 21.2974792 88.6436354 7.95536458 92.5383958 7.95536458 95.85225 16.2396979 99.2238021 7.95536458 103.089865 7.95536458 94.6022292 29 90.7944688 29"
   style="fill-rule:evenodd;stroke:none;stroke-width:1"
   transform="matrix(0.35916883,0,0,0.35916883,-6.9999999e-8,19.773336)" /><path
   d="m 2.4439381,23.341757 c -0.9203964,0 -1.6692559,0.753525 -1.6692559,1.679672 0,0.926146 0.7488595,1.679671 1.6692559,1.679671 0.9205048,0 1.6693642,-0.753525 1.6693642,-1.679671 0,-0.926147 -0.7488594,-1.679672 -1.6693642,-1.679672 z m 0,4.113302 c -0.653489,0 -1.2685694,-0.249547 -1.73175128,-0.702747 C 0.2532364,26.283054 -6.9999999e-8,25.667974 -6.9999999e-8,25.021429 -6.9999999e-8,24.374883 0.2532364,23.759803 0.71316333,23.289677 1.1754772,22.837454 1.7904491,22.587906 2.4439381,22.587906 c 0.6610838,0 1.2177916,0.349801 1.5682434,0.643182 l 0.1011208,0.08463 V 22.692174 H 4.888093 v 4.658618 H 4.1133023 V 26.72714 l -0.1011208,0.08452 c -0.3504518,0.29349 -0.9071596,0.643399 -1.5682434,0.643399 z"
   fill="#000000"
   style="fill-rule:evenodd;stroke:none;stroke-width:0.359169" /><path
   d="M 6.2906588,27.350792 V 23.425301 H 5.5807501 v -0.733127 h 0.7099087 v -1.376851 c 0,-0.843688 0.6698721,-1.504555 1.5251691,-1.504555 h 0.9743202 l -0.1966,0.733127 H 7.8367682 c -0.4108855,0 -0.7714271,0.370199 -0.7714271,0.792368 v 1.355911 h 1.4720046 v 0.733127 H 7.0653411 v 3.925491 H 6.2906588"
   fill="#000000"
   style="fill-rule:evenodd;stroke:none;stroke-width:0.359169" /><path
   d="m 11.459113,27.350792 c -0.841084,0 -1.5251691,-0.684411 -1.5251691,-1.525387 V 23.425301 H 9.2239267 v -0.733127 h 0.7100172 v -2.881406 h 0.7745741 v 2.881406 h 1.472113 v 0.733127 h -1.472113 v 2.379273 c 0,0.425533 0.367811,0.813091 0.771644,0.813091 h 0.756563 l 0.196709,0.733127 h -0.974321"
   fill="#000000"
   style="fill-rule:evenodd;stroke:none;stroke-width:0.359169" /><path
   d="m 14.795455,23.373005 c -0.598914,0 -1.154971,0.431825 -1.383904,1.074573 l -0.0075,0.014 -0.04427,0.08897 h 2.871966 L 16.176197,24.44053 C 15.961586,23.805269 15.405313,23.373009 14.79544,23.373009 Z m -0.0013,4.061223 c -0.606292,-4.31e-4 -1.164085,-0.252586 -1.570848,-0.710126 -0.373236,-0.404267 -0.591536,-0.911174 -0.632006,-1.466905 -0.0102,-0.07313 -0.0102,-0.141917 -0.0102,-0.214828 0,-0.182495 0.02062,-0.367703 0.06119,-0.550415 0.08973,-0.418806 0.290452,-0.809728 0.580687,-1.130884 0.404375,-0.444846 0.977575,-0.700144 1.572474,-0.700144 0.600108,0 1.162566,0.248897 1.583651,0.700795 0.302169,0.334502 0.502892,0.724881 0.579709,1.128389 0.06076,0.356635 0.06228,0.578082 0.05577,0.689076 h -3.690056 v 0.08246 c 0.108065,0.825026 0.73074,1.449437 1.449112,1.460504 0.44159,-0.02159 0.877213,-0.202242 1.179057,-0.485749 l 0.646328,0.38593 c -0.175443,0.185859 -0.363254,0.338734 -0.572332,0.466003 -0.340794,0.204412 -0.767087,0.324086 -1.232547,0.345895 z"
   fill="#000000"
   style="fill-rule:evenodd;stroke:none;stroke-width:0.359169" /><path
   d="m 17.775378,27.350792 v -4.658618 h 0.774899 v 0.588824 l 0.107088,-0.118264 c 0.27472,-0.303146 1.082277,-0.550198 1.61913,-0.573092 l -0.189006,0.773706 c -0.852041,0.02441 -1.537212,0.688643 -1.537212,1.501517 v 2.485927 h -0.774899"
   fill="#000000"
   style="fill-rule:evenodd;stroke:none;stroke-width:0.359169" /><path
   d="m 43.71595,23.951304 c 0.460577,-0.266582 0.893598,-0.517323 1.356671,-0.785315 -0.149946,-0.26311 -0.113383,-0.199855 -0.249982,-0.448101 -0.144738,-0.263001 -0.09016,-0.366401 0.208753,-0.368571 0.870377,-0.0061 1.740974,-0.0068 2.611351,-0.0023 0.258551,0.0014 0.320939,0.11208 0.191283,0.340144 -0.430525,0.757106 -0.86582,1.511499 -1.305026,2.263613 -0.140288,0.240108 -0.263001,0.239566 -0.409582,0.0047 -0.150596,-0.24141 -0.110451,-0.181735 -0.271574,-0.45537 -0.454065,0.263653 -0.90781,0.527196 -1.352328,0.785315 0.02669,0.06966 0.06076,0.114358 0.08864,0.162857 0.334936,0.582965 0.484555,0.861373 0.830668,1.437719 0.410124,0.683001 1.26987,0.724122 1.758117,0.09287 0.05425,-0.0702 0.10394,-0.144737 0.148315,-0.221554 0.821448,-1.422855 1.643327,-2.845384 2.45989,-4.27106 0.08279,-0.144304 0.157431,-0.301953 0.193344,-0.462965 0.143111,-0.641771 -0.332981,-1.248497 -1.002095,-1.252078 -1.760287,-0.0093 -3.5209,-0.01074 -5.281186,0.0048 -0.801805,0.0071 -1.283648,0.809836 -0.931461,1.515405 0.11479,0.229692 0.252477,0.447992 0.38148,0.670523 0.242712,0.418914 0.306838,0.529149 0.57472,0.989402"
   fill="#000000"
   style="fill-rule:evenodd;stroke:none;stroke-width:0.359169" /><path
   d="m 39.801958,28.347137 c 7.19e-4,-0.528064 0.0022,-1.561733 0.0022,-1.561733 0,0 -0.216456,-0.0023 -0.508971,-0.0023 -0.29783,0 -0.359237,-0.105244 -0.212222,-0.362712 0.428352,-0.749836 0.861481,-1.497067 1.299056,-2.241587 0.129984,-0.221121 0.245101,-0.240542 0.387127,0.0053 0.432041,0.748316 0.865493,1.495874 1.291894,2.247446 0.136168,0.239891 0.07454,0.344918 -0.200071,0.353707 -0.283506,0 -0.525895,-3.26e-4 -0.525895,-3.26e-4 l -1.08e-4,1.566399 c 0,0 1.15573,2.17e-4 1.831352,2.17e-4 0.7902,-0.01172 1.253815,-0.728787 0.955443,-1.462131 -0.03308,-0.08148 -0.07226,-0.16123 -0.116094,-0.237613 -0.811463,-1.413633 -1.622603,-2.827482 -2.438839,-4.238402 -0.08268,-0.142784 -0.180652,-0.28546 -0.300865,-0.396455 -0.479351,-0.442567 -1.237107,-0.336346 -1.573454,0.235877 -0.885025,1.505639 -1.763325,3.01551 -2.627083,4.53341 -0.393419,0.691464 0.05523,1.50488 0.836091,1.554139 0.254212,0.01606 1.339746,0.0067 1.900466,0.0067"
   fill="#000000"
   style="fill-rule:evenodd;stroke:none;stroke-width:0.359169" />
</svg>
