<svg version="1.1" id="Layer_1" xmlns="http://www.w3.org/2000/svg" xmlns:xlink="http://www.w3.org/1999/xlink" x="0px" y="0px"
	 viewBox="0 0 50 50" style="enable-background:new 0 0 50 50;" xml:space="preserve">
<style type="text/css">
	.st0{fill:none;}
</style>
<path d="M30.6,46.5c-2.6,0-5.4-0.9-8.5-2.7c-1.1-0.6-10.5-6.3-15.6-15c-3.7-6.4-7.4-13.9-2.8-21c2.6-4.3,9.3-5.5,9.6-5.5L14.1,2
	l6.4,12.1l-5.2,5.3c0.9,2.1,4.4,9.1,12.8,13.4l6.6-5.7L48,33.7l-0.7,1.1c-0.2,0.3-5.2,7.5-12,10.6C33.8,46.1,32.3,46.5,30.6,46.5z
	 M12.9,4.6C11.2,5,7.3,6.2,5.7,8.9c-3.5,5.4-1.4,11.4,2.9,18.7c4.8,8.2,13.7,13.6,14.7,14.2c4.4,2.6,7.9,3.1,11,1.6
	c4.8-2.1,8.7-6.6,10.3-8.7L35,29.8l-6.6,5.7l-0.7-0.3C16.4,29.7,13,19.9,12.9,19.4l-0.2-0.7l5-5.1L12.9,4.6z"/>
<rect x="15" y="14.8" class="st0" width="20" height="19.2"/>
</svg>
