<svg version="1.1" id="Layer_1" xmlns="http://www.w3.org/2000/svg" xmlns:xlink="http://www.w3.org/1999/xlink" x="0px" y="0px"
	 viewBox="0 0 50 50" style="enable-background:new 0 0 50 50;" xml:space="preserve">
<style type="text/css">
	.st0{fill:none;}
</style>
<path d="M27.7,3.3h-5.4C11.1,3.3,2,12.5,2,23.6s9.1,20.3,20.3,20.3h5.4c2.7,0,5.3-0.5,7.7-1.5l9.3,4.4l-0.4-11.6
	c2.3-3.3,3.7-7.3,3.7-11.6C48,12.5,38.9,3.3,27.7,3.3 M27.7,5.7c9.9,0,17.9,8,17.9,17.9c0,3.7-1.1,7.2-3.2,10.2l-0.5,0.7l0,0.8
	l0.3,7.6l-5.7-2.7l-1-0.5l-1,0.4c-2.2,0.9-4.4,1.3-6.8,1.3h-5.4c-9.9,0-17.9-8-17.9-17.9c0-9.9,8-17.9,17.9-17.9H27.7z"/>
<rect x="2" y="3.3" class="st0" width="46" height="43.5"/>
</svg>
