<?xml version="1.0" encoding="utf-8"?>
<svg version="1.1" id="Layer_1" xmlns="http://www.w3.org/2000/svg" xmlns:xlink="http://www.w3.org/1999/xlink" x="0px" y="0px"
     viewBox="0 0 50 50" style="enable-background:new 0 0 50 50;" xml:space="preserve">
  <path
     d="m 25.005,37.89 c -12.33,0 -21.92,-11 -22.32,-11.46 a 2.12,2.12 0 0 1 0,-2.83 c 0.4,-0.47 10,-11.49 22.32,-11.49 12.32,0 21.91,11 22.31,11.49 a 2.12,2.12 0 0 1 0,2.83 c -0.4,0.46 -9.97,11.46 -22.31,11.46 z m 0,-23.68 c -11.35,0.03 -20.33,10.34 -20.7,10.78 0.37,0.49 9.34,10.79 20.7,10.79 11.36,0 20.32,-10.3 20.69,-10.74 -0.37,-0.49 -9.33,-10.8 -20.69,-10.8 z"
     id="path2" />
  <path
     d="m 25.005,32.51 a 7.5,7.5 0 1 1 7.49,-7.5 7.5,7.5 0 0 1 -7.49,7.5 z m 0,-12.86 a 5.37,5.37 0 1 0 5.36,5.36 5.38,5.38 0 0 0 -5.36,-5.36 z"
     id="path4" />
</svg>
