<svg version="1.1" id="Layer_1" xmlns="http://www.w3.org/2000/svg" xmlns:xlink="http://www.w3.org/1999/xlink" x="0px" y="0px"
	 viewBox="0 0 50 50" style="enable-background:new 0 0 50 50;" xml:space="preserve">
<style type="text/css">
	.st0{fill:none;}
</style>
<path d="M25.3,4c-6.1,0-6.9,0-9.3,0.1c-2.4,0.1-4.1,0.5-5.5,1C9,5.7,7.7,6.5,6.5,7.7c-1.3,1.2-2,2.4-2.6,3.9c-0.6,1.4-0.9,3-1.1,5.3
	C2.7,19.3,2.7,20,2.7,26c0,6,0,6.7,0.1,9.1c0.1,2.3,0.5,3.9,1.1,5.3c0.6,1.4,1.4,2.7,2.6,3.9c1.3,1.2,2.5,2,4,2.5
	c1.4,0.5,3.1,0.9,5.5,1c2.4,0.1,3.2,0.1,9.3,0.1s6.9,0,9.3-0.1c2.4-0.1,4.1-0.5,5.5-1c1.5-0.6,2.7-1.3,4-2.5c1.3-1.2,2-2.4,2.6-3.9
	c0.6-1.4,0.9-3,1.1-5.3c0.1-2.3,0.1-3.1,0.1-9.1c0-6,0-6.7-0.1-9.1c-0.1-2.3-0.5-3.9-1.1-5.3c-0.6-1.4-1.4-2.7-2.6-3.9
	c-1.3-1.2-2.5-2-4-2.5c-1.4-0.5-3.1-0.9-5.5-1C32.2,4,31.4,4,25.3,4 M25.3,8c6,0,6.8,0,9.1,0.1c2.2,0.1,3.4,0.5,4.2,0.8
	c1.1,0.4,1.8,0.9,2.6,1.6c0.8,0.8,1.3,1.5,1.7,2.5c0.3,0.8,0.7,1.9,0.8,4.1c0.1,2.3,0.1,3,0.1,8.9s0,6.6-0.1,8.9
	c-0.1,2.1-0.5,3.3-0.8,4.1c-0.4,1-0.9,1.8-1.7,2.5c-0.8,0.8-1.5,1.2-2.6,1.6c-0.8,0.3-2,0.7-4.2,0.8C32,44,31.3,44,25.3,44
	s-6.8,0-9.1-0.1c-2.2-0.1-3.4-0.5-4.2-0.8c-1.1-0.4-1.8-0.9-2.6-1.6C8.5,40.7,8.1,40,7.6,39C7.3,38.2,7,37,6.9,34.9
	c-0.1-2.3-0.1-3-0.1-8.9s0-6.6,0.1-8.9C7,15,7.3,13.8,7.6,13c0.4-1,0.9-1.8,1.7-2.5c0.8-0.8,1.5-1.2,2.6-1.6c0.8-0.3,2-0.7,4.2-0.8
	C18.5,8,19.2,8,25.3,8"/>
<path d="M25.3,33.3c-4.2,0-7.5-3.3-7.5-7.3c0-4.1,3.4-7.3,7.5-7.3s7.5,3.3,7.5,7.3C32.8,30,29.4,33.3,25.3,33.3 M25.3,14.7
	c-6.4,0-11.6,5.1-11.6,11.3c0,6.2,5.2,11.3,11.6,11.3S36.9,32.2,36.9,26C36.9,19.8,31.7,14.7,25.3,14.7"/>
<path d="M40.1,14.3c0,1.5-1.2,2.6-2.7,2.6c-1.5,0-2.7-1.2-2.7-2.6c0-1.5,1.2-2.6,2.7-2.6C38.9,11.6,40.1,12.8,40.1,14.3"/>
<rect x="2.7" y="4" class="st0" width="45.2" height="44"/>
</svg>
