<?xml version="1.0" encoding="utf-8"?>
<!-- Generator: Adobe Illustrator 22.1.0, SVG Export Plug-In . SVG Version: 6.00 Build 0)  -->
<svg version="1.1" id="Layer_1" xmlns="http://www.w3.org/2000/svg" xmlns:xlink="http://www.w3.org/1999/xlink" x="0px" y="0px"
	 viewBox="0 0 50 50" style="enable-background:new 0 0 50 50;" xml:space="preserve">
<style type="text/css">
	.st0{fill:none;}
	.st1{fill:#231F20;}
</style>
<rect x="5.7" y="2" class="st0" width="37.1" height="46"/>
<path class="st1" d="M21.7,33.3c1,1.8,3.8,3.4,6.7,3.4c8.9,0,15.3-8.2,15.3-18.3c0-9.7-7.9-17-18.1-17C12.8,1.4,6.1,9.9,6.1,19.2
	c0,4.3,2.3,9.7,6,11.4c0.6,0.3,0.9,0.1,1-0.4c0.1-0.4,0.6-2.4,0.8-3.3c0.1-0.3,0-0.6-0.2-0.8c-1.2-1.5-2.2-4.2-2.2-6.7
	c0-6.5,4.9-12.8,13.3-12.8c7.2,0,12.3,4.9,12.3,12c0,8-4,13.5-9.2,13.5c-2.9,0-5-2.4-4.4-5.3c0.8-3.5,2.4-7.3,2.4-9.8
	c0-2.3-1.2-4.1-3.7-4.1c-3,0-5.3,3.1-5.3,7.1c0,2.6,0.9,4.4,0.9,4.4s-2.9,12.3-3.4,14.6c-0.6,2.5-0.4,6.1-0.1,8.4
	c0.7,0.3,1.3,0.5,2,0.7c1.2-2,3-5.2,3.7-7.7C20.2,38.9,21.7,33.3,21.7,33.3"/>
<rect x="37" y="17.7" class="st0" width="14.5" height="18"/>
</svg>
