<?xml version="1.0" encoding="utf-8"?>
<!-- Generator: Adobe Illustrator 22.1.0, SVG Export Plug-In . SVG Version: 6.00 Build 0)  -->
<svg version="1.1" id="Layer_1" xmlns="http://www.w3.org/2000/svg" xmlns:xlink="http://www.w3.org/1999/xlink" x="0px" y="0px"
	 viewBox="0 0 50 50" enable-background="new 0 0 50 50" xml:space="preserve">
<path d="M47.6,45.9L37.1,35.4c3.1-3.5,5.1-8.2,5.1-13.3C42.2,11,33.2,2,22.1,2S2,11,2,22.1s9,20.1,20.1,20.1c5.1,0,9.7-1.9,13.3-5.1
	l10.5,10.5c0.2,0.2,0.6,0.4,0.9,0.4c0.3,0,0.6-0.1,0.9-0.4C48.1,47.2,48.1,46.4,47.6,45.9z M34.1,35c-3.2,2.9-7.4,4.7-12,4.7
	c-9.7,0-17.7-7.9-17.7-17.7c0-9.7,7.9-17.7,17.7-17.7c9.7,0,17.7,7.9,17.7,17.7c0,4.6-1.8,8.8-4.7,12"/>
</svg>
