<svg version="1.1" id="Layer_1" xmlns="http://www.w3.org/2000/svg" xmlns:xlink="http://www.w3.org/1999/xlink" x="0px" y="0px"
	 viewBox="0 0 50 50" style="enable-background:new 0 0 50 50;" xml:space="preserve">
<path d="M25.1,1.5C12.1,1.5,1.6,12,1.6,24.9c0,12.9,10.5,23.4,23.4,23.4c12.9,0,23.4-10.5,23.4-23.4C48.5,12,38,1.5,25.1,1.5
	C25.1,1.5,25.1,1.5,25.1,1.5z M35.8,35.3c-0.4,0.7-1.3,0.9-2,0.5c-5.5-3.4-12.4-4.1-20.6-2.3c-0.8,0.2-1.6-0.3-1.7-1.1
	c-0.2-0.8,0.3-1.6,1.1-1.7c8.9-2,16.6-1.2,22.8,2.6C36,33.7,36.2,34.6,35.8,35.3z M38.7,28.9c-0.5,0.9-1.7,1.1-2.5,0.6
	c-6.3-3.9-15.9-5-23.3-2.7c-1,0.3-2-0.3-2.3-1.2c-0.3-1,0.3-2,1.2-2.3c8.5-2.6,19.1-1.3,26.3,3.1C38.9,26.9,39.2,28.1,38.7,28.9
	L38.7,28.9z M38.9,22.3c-7.6-4.5-20-4.9-27.2-2.7c-1.2,0.4-2.4-0.3-2.7-1.5c-0.4-1.2,0.3-2.4,1.5-2.7c8.3-2.5,22-2,30.7,3.1
	c1,0.6,1.4,2,0.8,3C41.3,22.6,39.9,22.9,38.9,22.3L38.9,22.3z"/>
</svg>
