<svg version="1.1" id="Layer_1" xmlns="http://www.w3.org/2000/svg" xmlns:xlink="http://www.w3.org/1999/xlink" x="0px" y="0px"
	 viewBox="0 0 66 50" style="enable-background:new 0 0 66 50;" xml:space="preserve">
<style type="text/css">
	.st0{fill:none;}
</style>
<path d="M26.7,34.4V15.9l16.2,9.2L26.7,34.4z M62.7,10.1c-0.7-2.7-2.8-4.8-5.5-5.5C52.4,3.3,33,3.3,33,3.3s-19.4,0-24.2,1.3
	C6.1,5.3,4,7.5,3.3,10.1C2,15,2,25.2,2,25.2s0,10.2,1.3,15C4,42.9,6.1,45,8.8,45.7C13.6,47,33,47,33,47s19.4,0,24.2-1.3
	c2.7-0.7,4.8-2.8,5.5-5.5c1.3-4.9,1.3-15,1.3-15S64,15,62.7,10.1"/>
<rect x="2" y="3.3" class="st0" width="62" height="43.7"/>
</svg>
